<?xml version="1.0" standalone="no"?>
<!DOCTYPE svg PUBLIC "-//W3C//DTD SVG 20010904//EN"
 "http://www.w3.org/TR/2001/REC-SVG-20010904/DTD/svg10.dtd">
<svg version="1.0" xmlns="http://www.w3.org/2000/svg"
 width="500.000000pt" height="500.000000pt" viewBox="0 0 500.000000 500.000000"
 preserveAspectRatio="xMidYMid meet">

<g transform="translate(0.000000,500.000000) scale(0.100000,-0.100000)"
fill="#000000" stroke="none">
<path d="M0 2500 l0 -2500 2500 0 2500 0 0 2500 0 2500 -2500 0 -2500 0 0
-2500z m2707 1339 c250 -54 427 -151 609 -333 106 -107 155 -173 216 -296 167
-330 167 -734 2 -1062 -206 -408 -608 -658 -1060 -658 -620 0 -1130 466 -1183
1080 -30 361 89 692 338 940 138 138 297 236 473 295 178 59 427 73 605 34z
m-1082 -250 c4 -5 -17 -36 -47 -67 -157 -164 -264 -369 -314 -602 -25 -116
-26 -361 0 -480 53 -253 163 -457 342 -636 331 -330 804 -441 1253 -294 293
95 546 309 699 590 70 129 142 379 142 496 0 24 5 34 15 34 20 0 20 -60 0
-173 -75 -432 -373 -797 -780 -956 -165 -65 -273 -84 -465 -85 -171 0 -216 6
-370 51 -253 73 -520 270 -670 494 -100 150 -155 277 -196 454 -29 123 -27
417 4 540 59 235 154 414 316 593 49 53 60 60 71 41z"/>
<path d="M2375 3803 c-196 -18 -438 -111 -582 -224 -115 -91 -243 -238 -311
-359 -202 -361 -179 -832 59 -1181 145 -213 396 -390 647 -456 132 -34 338
-43 475 -19 233 40 448 153 615 325 430 442 427 1144 -8 1582 -237 239 -568
362 -895 332z m228 -70 c-7 -2 -19 -2 -25 0 -7 3 -2 5 12 5 14 0 19 -2 13 -5z
m97 -13 c0 -5 -7 -10 -15 -10 -8 0 -15 5 -15 10 0 6 7 10 15 10 8 0 15 -4 15
-10z m85 -20 c3 -5 -1 -10 -9 -10 -9 0 -16 5 -16 10 0 6 4 10 9 10 6 0 13 -4
16 -10z m-275 -29 c0 -16 -12 -19 -93 -25 -434 -30 -787 -329 -894 -754 -27
-105 -24 -341 6 -452 50 -187 126 -319 260 -450 196 -193 419 -284 691 -282
226 1 432 75 602 215 44 35 68 41 68 16 0 -29 -197 -159 -297 -197 -154 -59
-203 -67 -388 -67 -155 1 -178 3 -264 28 -185 55 -324 140 -461 283 -106 112
-179 232 -224 374 -211 653 254 1305 947 1328 40 2 47 -1 47 -17z m365 -1 c3
-5 -1 -10 -9 -10 -9 0 -16 5 -16 10 0 6 4 10 9 10 6 0 13 -4 16 -10z m95 -46
c0 -2 -7 -4 -15 -4 -8 0 -15 4 -15 10 0 5 7 7 15 4 8 -4 15 -8 15 -10z m-1000
-14 c0 -5 -7 -10 -16 -10 -8 0 -12 5 -9 10 3 6 10 10 16 10 5 0 9 -4 9 -10z
m1076 -37 c-7 -7 -26 7 -26 19 0 6 6 6 15 -2 9 -7 13 -15 11 -17z m-273 -29
c46 -15 77 -31 77 -39 0 -24 -15 -25 -70 -4 -29 11 -82 27 -118 35 -79 18 -86
22 -72 39 13 16 73 6 183 -31z m-893 11 c-7 -9 -15 -13 -17 -11 -7 7 7 26 19
26 6 0 6 -6 -2 -15z m1240 -25 c0 -5 -4 -10 -10 -10 -5 0 -10 5 -10 10 0 6 5
10 10 10 6 0 10 -4 10 -10z m-1318 -32 c-7 -7 -12 -8 -12 -2 0 14 12 26 19 19
2 -3 -1 -11 -7 -17z m828 -12 c322 -68 563 -300 646 -621 24 -94 24 -283 0
-380 -27 -107 -105 -259 -176 -343 -56 -66 -64 -72 -78 -59 -13 14 -9 22 37
74 187 208 246 500 156 770 -76 226 -266 416 -497 495 -189 64 -421 47 -598
-44 -326 -167 -495 -532 -410 -886 74 -311 331 -544 650 -593 67 -10 80 -15
80 -31 0 -17 -6 -18 -52 -12 -208 25 -372 107 -519 260 -81 85 -139 183 -180
305 -28 81 -33 112 -37 224 -4 111 -1 143 18 218 26 107 58 180 114 266 52 79
159 188 234 237 74 50 200 103 280 119 89 17 251 18 332 1z m565 -16 c3 -5 2
-10 -4 -10 -5 0 -13 5 -16 10 -3 6 -2 10 4 10 5 0 13 -4 16 -10z m-1461 -35
c-4 -8 -8 -15 -10 -15 -2 0 -4 7 -4 15 0 8 4 15 10 15 5 0 7 -7 4 -15z m1526
-36 c0 -6 -4 -7 -10 -4 -5 3 -10 11 -10 16 0 6 5 7 10 4 6 -3 10 -11 10 -16z
m-682 -11 c3 -16 -7 -18 -102 -18 -82 0 -106 3 -106 13 0 25 13 28 109 25 82
-3 96 -6 99 -20z m542 -65 c85 -87 107 -120 91 -136 -9 -9 -20 -2 -49 33 -20
25 -60 68 -89 95 -29 28 -53 56 -53 63 0 29 39 7 100 -55z m-1445 47 c-3 -5
-11 -10 -16 -10 -6 0 -7 5 -4 10 3 6 11 10 16 10 6 0 7 -4 4 -10z m563 -22 c2
-10 -11 -21 -35 -31 -21 -9 -61 -30 -90 -46 -41 -25 -53 -28 -62 -17 -15 18 6
35 94 80 73 37 88 39 93 14z m574 -20 c79 -41 99 -61 81 -79 -6 -6 -30 3 -66
24 -31 19 -70 40 -87 47 -29 12 -38 29 -23 43 9 10 8 11 95 -35z m508 1 c0 -5
-4 -9 -10 -9 -5 0 -10 7 -10 16 0 8 5 12 10 9 6 -3 10 -10 10 -16z m-1700 -27
c0 -13 -12 -22 -22 -16 -10 6 -1 24 13 24 5 0 9 -4 9 -8z m1030 -43 c206 -56
373 -223 436 -434 27 -90 26 -259 -3 -350 -60 -189 -217 -354 -400 -416 -58
-21 -87 -24 -203 -24 -162 0 -229 19 -346 97 -83 55 -140 117 -197 210 -143
237 -103 552 97 753 126 127 261 184 441 184 72 1 122 -5 175 -20z m728 -7 c6
-18 -15 -14 -22 4 -4 10 -1 14 6 12 6 -2 14 -10 16 -16z m-1814 -37 c-6 -16
-24 -21 -24 -7 0 11 11 22 21 22 5 0 6 -7 3 -15z m1862 -52 c-7 -7 -26 7 -26
19 0 6 6 6 15 -2 9 -7 13 -15 11 -17z m-1480 -6 c4 -12 -87 -160 -107 -173
-19 -11 -21 29 -4 60 27 47 88 126 97 126 5 0 11 -6 14 -13z m1160 -106 c23
-43 26 -71 5 -71 -5 0 -23 21 -39 48 -17 26 -43 64 -58 85 -24 32 -26 40 -14
48 18 11 66 -39 106 -110z m-1590 72 c-10 -10 -19 5 -10 18 6 11 8 11 12 0 2
-7 1 -15 -2 -18z m1944 -38 c0 -8 -2 -15 -4 -15 -2 0 -6 7 -10 15 -3 8 -1 15
4 15 6 0 10 -7 10 -15z m-1984 -52 c-10 -10 -19 5 -10 18 6 11 8 11 12 0 2 -7
1 -15 -2 -18z m2017 -28 c4 -8 2 -17 -3 -20 -6 -4 -10 3 -10 14 0 25 6 27 13
6z m-143 -72 c24 -77 36 -164 26 -190 -7 -17 -8 -17 -22 1 -8 11 -14 33 -14
50 0 16 -9 65 -21 108 -33 123 -6 151 31 31z m-1903 15 c-3 -8 -6 -5 -6 6 -1
11 2 17 5 13 3 -3 4 -12 1 -19z m2073 -44 c0 -8 -4 -12 -10 -9 -5 3 -10 10
-10 16 0 5 5 9 10 9 6 0 10 -7 10 -16z m-333 -57 c7 -20 13 -64 15 -99 2 -51
0 -63 -13 -66 -13 -2 -18 9 -23 55 -4 32 -12 75 -17 96 -17 66 17 79 38 14z
m-1760 11 c-3 -8 -6 -5 -6 6 -1 11 2 17 5 13 3 -3 4 -12 1 -19z m365 -23 c-1
-11 -6 -56 -10 -100 -6 -67 -10 -80 -26 -83 -18 -4 -19 2 -13 84 2 49 8 97 12
107 10 24 41 17 37 -8z m1748 -26 c0 -5 -4 -9 -10 -9 -5 0 -10 7 -10 16 0 8 5
12 10 9 6 -3 10 -10 10 -16z m-2124 -46 c-10 -10 -19 5 -10 18 6 11 8 11 12 0
2 -7 1 -15 -2 -18z m2121 -55 c-3 -7 -5 -2 -5 12 0 14 2 19 5 13 2 -7 2 -19 0
-25z m-2125 -40 c-9 -9 -12 -7 -12 12 0 19 3 21 12 12 9 -9 9 -15 0 -24z
m2125 -50 c-3 -7 -5 -2 -5 12 0 14 2 19 5 13 2 -7 2 -19 0 -25z m-2117 -33 c0
-8 -4 -15 -10 -15 -5 0 -10 7 -10 15 0 8 5 15 10 15 6 0 10 -7 10 -15z m2107
-67 c-3 -7 -5 -2 -5 12 0 14 2 19 5 13 2 -7 2 -19 0 -25z m-1712 -63 c13 -33
29 -75 36 -92 16 -40 1 -64 -23 -39 -22 22 -72 162 -64 181 11 28 28 11 51
-50z m-385 33 c0 -18 -2 -20 -9 -8 -6 8 -7 18 -5 22 9 14 14 9 14 -14z m2090
-47 c0 -6 -4 -13 -10 -16 -5 -3 -10 1 -10 9 0 9 5 16 10 16 6 0 10 -4 10 -9z
m-2070 -46 c0 -8 -2 -15 -4 -15 -2 0 -6 7 -10 15 -3 8 -1 15 4 15 6 0 10 -7
10 -15z m2044 -50 c-4 -8 -8 -15 -10 -15 -2 0 -4 7 -4 15 0 8 4 15 10 15 5 0
7 -7 4 -15z m-2014 -41 c0 -8 -4 -12 -10 -9 -5 3 -10 10 -10 16 0 5 5 9 10 9
6 0 10 -7 10 -16z m1971 -57 c-8 -8 -11 -7 -11 4 0 20 13 34 18 19 3 -7 -1
-17 -7 -23z m-1931 -28 c0 -5 -4 -9 -10 -9 -5 0 -10 7 -10 16 0 8 5 12 10 9 6
-3 10 -10 10 -16z m1720 -25 c0 -22 -57 -98 -119 -159 -38 -37 -54 -46 -62
-38 -9 9 3 27 46 75 31 35 69 80 82 101 27 38 53 49 53 21z m176 -31 c-10 -10
-19 5 -10 18 6 11 8 11 12 0 2 -7 1 -15 -2 -18z m-1856 -28 c0 -8 -2 -15 -4
-15 -2 0 -6 7 -10 15 -3 8 -1 15 4 15 6 0 10 -7 10 -15z m272 -59 c21 -25 61
-61 88 -81 30 -22 50 -44 50 -56 0 -10 -4 -19 -9 -19 -23 0 -201 165 -201 187
0 26 34 12 72 -31z m1534 7 c-10 -10 -19 5 -10 18 6 11 8 11 12 0 2 -7 1 -15
-2 -18z m-1756 -23 c0 -5 -2 -10 -4 -10 -3 0 -8 5 -11 10 -3 6 -1 10 4 10 6 0
11 -4 11 -10z m1710 -39 c0 -6 -4 -13 -10 -16 -5 -3 -10 1 -10 9 0 9 5 16 10
16 6 0 10 -4 10 -9z m-1650 -42 c0 -6 -4 -7 -10 -4 -5 3 -10 11 -10 16 0 6 5
7 10 4 6 -3 10 -11 10 -16z m1585 -38 c-3 -6 -11 -11 -17 -11 -6 0 -6 6 2 15
14 17 26 13 15 -4z m-1517 -30 c3 -8 -1 -12 -9 -9 -7 2 -15 10 -17 17 -3 8 1
12 9 9 7 -2 15 -10 17 -17z m1149 -38 c8 -23 -217 -103 -252 -89 -28 10 -2 31
57 45 29 7 78 23 108 36 59 25 81 27 87 8z m303 7 c0 -5 -4 -10 -10 -10 -5 0
-10 5 -10 10 0 6 5 10 10 10 6 0 10 -4 10 -10z m-1380 -32 c0 -13 -23 -5 -28
10 -2 7 2 10 12 6 9 -3 16 -11 16 -16z m430 -17 c38 -11 94 -23 124 -26 36 -5
56 -12 56 -21 0 -23 -16 -24 -96 -10 -116 21 -168 39 -172 59 -4 21 3 21 88
-2z m875 -11 c-3 -5 -11 -10 -16 -10 -6 0 -7 5 -4 10 3 6 11 10 16 10 6 0 7
-4 4 -10z m-1235 -31 c0 -6 -4 -7 -10 -4 -5 3 -10 11 -10 16 0 6 5 7 10 4 6
-3 10 -11 10 -16z m1160 -19 c0 -5 -7 -10 -16 -10 -8 0 -12 5 -9 10 3 6 10 10
16 10 5 0 9 -4 9 -10z m-1076 -31 c-6 -11 -24 -2 -24 11 0 5 7 7 15 4 8 -4 12
-10 9 -15z m991 -19 c-3 -5 -11 -10 -16 -10 -6 0 -7 5 -4 10 3 6 11 10 16 10
6 0 7 -4 4 -10z m-905 -21 c0 -4 -7 -6 -15 -3 -8 4 -15 10 -15 15 0 4 7 6 15
3 8 -4 15 -10 15 -15z m830 -13 c0 -9 -30 -14 -35 -6 -4 6 3 10 14 10 12 0 21
-2 21 -4z m-745 -16 c3 -5 -1 -10 -9 -10 -9 0 -16 5 -16 10 0 6 4 10 9 10 6 0
13 -4 16 -10z m655 -14 c0 -2 -7 -6 -15 -10 -8 -3 -15 -1 -15 4 0 6 7 10 15
10 8 0 15 -2 15 -4z m-560 -16 c0 -5 -4 -10 -9 -10 -6 0 -13 5 -16 10 -3 6 1
10 9 10 9 0 16 -4 16 -10z m465 -10 c-3 -5 -10 -10 -16 -10 -5 0 -9 5 -9 10 0
6 7 10 16 10 8 0 12 -4 9 -10z m-375 -10 c0 -5 -4 -10 -9 -10 -6 0 -13 5 -16
10 -3 6 1 10 9 10 9 0 16 -4 16 -10z m280 0 c0 -5 -7 -10 -16 -10 -8 0 -12 5
-9 10 3 6 10 10 16 10 5 0 9 -4 9 -10z m-190 -10 c0 -5 -7 -7 -15 -4 -8 4 -15
8 -15 10 0 2 7 4 15 4 8 0 15 -4 15 -10z m100 0 c0 -5 -7 -10 -15 -10 -8 0
-15 5 -15 10 0 6 7 10 15 10 8 0 15 -4 15 -10z"/>
<path d="M2822 2981 c-31 -15 -47 -30 -58 -56 -31 -76 6 -141 114 -198 54 -28
78 -63 67 -98 -24 -75 -120 -59 -140 24 -8 31 -25 35 -48 9 -55 -60 49 -136
154 -113 81 18 124 90 99 165 -13 39 -37 61 -120 109 -53 31 -55 33 -55 76 0
50 18 68 58 57 18 -4 30 -17 39 -41 9 -26 17 -35 32 -33 43 7 47 70 6 96 -38
23 -101 24 -148 3z"/>
<path d="M1980 2977 c0 -7 10 -17 23 -22 22 -10 22 -13 22 -185 0 -172 0 -175
-22 -185 -46 -20 -26 -35 47 -35 54 0 70 3 70 14 0 8 -10 16 -22 18 -23 3 -23
6 -26 158 l-2 155 99 -170 c91 -157 101 -170 130 -173 l31 -3 2 203 3 203 30
0 c28 0 33 -7 87 -115 52 -105 57 -121 58 -182 0 -64 -1 -68 -25 -74 -14 -3
-25 -12 -25 -20 0 -11 21 -14 100 -14 82 0 100 3 100 15 0 8 -8 15 -18 15 -30
0 -42 22 -42 79 0 44 9 75 51 165 28 61 59 118 70 128 34 29 23 38 -51 38 -54
0 -70 -3 -70 -14 0 -8 10 -16 22 -18 34 -5 33 -27 -5 -118 l-34 -82 -32 69
c-45 94 -50 123 -22 130 11 3 21 12 21 19 0 11 -30 14 -155 14 -131 0 -155 -2
-155 -15 0 -8 6 -15 14 -15 31 0 37 -27 34 -155 l-3 -127 -89 156 -88 156 -64
0 c-45 0 -64 -4 -64 -13z"/>
<path d="M2148 2430 c-20 -12 -33 -85 -24 -136 6 -28 14 -38 41 -50 19 -8 39
-23 45 -34 6 -11 17 -20 25 -20 18 0 18 5 5 31 -8 14 -7 25 5 41 23 34 20 133
-5 158 -21 21 -64 26 -92 10z m67 -90 c0 -63 -1 -65 -25 -65 -23 0 -25 4 -28
54 -4 68 2 83 30 79 21 -3 23 -8 23 -68z"/>
<path d="M2330 2356 c0 -96 11 -116 64 -116 49 0 56 14 56 112 0 70 -3 88 -15
88 -11 0 -15 -18 -17 -82 -3 -81 -4 -83 -28 -83 -24 0 -25 2 -28 83 -2 64 -6
82 -17 82 -12 0 -15 -17 -15 -84z"/>
<path d="M2530 2425 c0 -8 9 -15 20 -15 18 0 20 -7 20 -70 0 -63 -2 -70 -20
-70 -11 0 -20 -7 -20 -15 0 -12 13 -15 60 -15 47 0 60 3 60 15 0 8 -9 15 -20
15 -18 0 -20 7 -20 70 0 63 2 70 20 70 11 0 20 7 20 15 0 12 -13 15 -60 15
-47 0 -60 -3 -60 -15z"/>
<path d="M2730 2425 c0 -11 11 -15 40 -15 l40 0 -40 -65 c-22 -36 -40 -74 -40
-85 0 -18 7 -20 60 -20 47 0 60 3 60 15 0 11 -11 15 -40 15 -22 0 -40 3 -40 6
0 3 18 36 40 73 22 37 40 73 40 79 0 8 -20 12 -60 12 -47 0 -60 -3 -60 -15z"/>
</g>
</svg>
